<svg xmlns="http://www.w3.org/2000/svg" id="Layer_1" data-name="Layer 1" viewBox="0 0 24 24" width="300" height="300" version="1.1" xmlns:xlink="http://www.w3.org/1999/xlink" xmlns:svgjs="http://svgjs.dev/svgjs"><g transform="matrix(1,0,0,1,0,0)"><path d="M12,14.184V5H10v9.184a3,3,0,1,0,2,0ZM11,18a1,1,0,1,1,1-1A1,1,0,0,1,11,18ZM16,5A5,5,0,0,0,6,5v7.111a7,7,0,1,0,10,0ZM11,22a4.994,4.994,0,0,1-3.332-8.719l.332-.3V5a3,3,0,0,1,6,0v7.983l.332.3A4.994,4.994,0,0,1,11,22ZM21,0a3,3,0,1,0,3,3A3,3,0,0,0,21,0Zm0,4a1,1,0,1,1,1-1A1,1,0,0,1,21,4Z" fill="#e33232ff" data-original-color="#000000ff" stroke="none"/></g></svg>